<?xml version="1.0" standalone="no"?>
<!DOCTYPE svg PUBLIC "-//W3C//DTD SVG 20010904//EN"
 "http://www.w3.org/TR/2001/REC-SVG-20010904/DTD/svg10.dtd">
<svg version="1.0" xmlns="http://www.w3.org/2000/svg"
 width="113.000000pt" height="113.000000pt" viewBox="0 0 113.000000 113.000000"
 preserveAspectRatio="xMidYMid meet">
<metadata>
Created by potrace 1.14, written by Peter Selinger 2001-2017
</metadata>
<g transform="translate(0.000000,113.000000) scale(0.100000,-0.100000)"
fill="#000000" stroke="none">
<path d="M492 1059 c-232 -40 -399 -230 -419 -475 l-5 -71 28 -4 c16 -2 41 -3
55 -1 26 3 27 6 31 80 9 143 93 267 225 333 64 32 74 34 168 34 92 0 105 -3
165 -31 55 -27 143 -91 129 -95 -2 -1 -97 -2 -211 -3 -132 -1 -211 -5 -218
-12 -19 -19 -20 -57 -3 -76 15 -17 39 -18 315 -18 212 0 298 3 298 11 0 6 -14
38 -32 71 -38 72 -121 157 -191 197 -95 54 -230 78 -335 60z"/>
<path d="M473 612 c-56 -5 -72 -82 -21 -98 39 -12 247 -7 263 6 20 16 19 64
-1 81 -15 12 -159 19 -241 11z"/>
<path d="M989 612 c-11 -2 -15 -18 -15 -65 -3 -285 -316 -470 -575 -341 -52
26 -113 74 -104 82 3 3 95 6 204 6 215 1 231 5 231 55 0 51 -2 51 -327 51
-167 0 -303 -3 -303 -7 0 -29 65 -129 120 -184 165 -167 409 -201 609 -84 164
97 269 292 252 471 -1 12 -62 22 -92 16z"/>
</g>
</svg>
